# xmcd
# Copyright (C) 1995-1998 Ti Kan
#
# Track frame offsets:
#       150
#       15603
#       33364
#       47467
#       74125
#
# Disc length: 1106 seconds
#
# Revision: 0
# Processed by: cddbd v1.4PL0 Copyright (c) Steve Scherf et al.
# Submitted via: CD-Transfer v1.0
#
DISCID=3c045005
DTITLE=Nekish - Sunntigschind
DYEAR=2003
DGENRE=
TTITLE0=Sunntigschind
TTITLE1=Feigling
TTITLE2=Alti Schachtle
TTITLE3=Sunntigschind (Instrumental)
TTITLE4=Data Track
EXTD=
EXTT0=
EXTT1=
EXTT2=
EXTT3=
EXTT4=
PLAYORDER=
